<svg width="13" height="13" viewBox="0 0 13 13" fill="none" xmlns="http://www.w3.org/2000/svg">
<path d="M5.76324 2.75154C5.6846 2.67931 5.58069 2.64094 5.47398 2.64473C5.36727 2.64852 5.26634 2.69417 5.19303 2.7718C5.11972 2.84944 5.07992 2.95281 5.08225 3.05957C5.08457 3.16632 5.12883 3.26786 5.20545 3.34223L8.54889 6.50001L5.20545 9.65779C5.12883 9.73216 5.08457 9.83371 5.08225 9.94046C5.07992 10.0472 5.11972 10.1506 5.19303 10.2282C5.26634 10.3059 5.36727 10.3515 5.47398 10.3553C5.58069 10.3591 5.6846 10.3207 5.76324 10.2485L9.41949 6.79536C9.45966 6.75737 9.49167 6.71158 9.51354 6.6608C9.53542 6.61002 9.5467 6.55531 9.5467 6.50001C9.5467 6.44472 9.53542 6.39001 9.51354 6.33923C9.49167 6.28844 9.45966 6.24266 9.41949 6.20467L5.76324 2.75154V2.75154Z" fill="#292929"/>
<path d="M6.5 0C4.76389 0 3.13158 0.676203 1.90409 1.90389C0.676203 3.13158 0 4.76389 0 6.5C0 8.23611 0.676406 9.86842 1.90409 11.0959C3.13158 12.3238 4.76389 13 6.5 13C8.23611 13 9.86842 12.3238 11.0959 11.0961C12.3238 9.86842 13 8.23611 13 6.5C13 4.76389 12.3236 3.13158 11.0959 1.90409C9.86842 0.676203 8.23611 0 6.5 0ZM10.5213 10.5215C9.44714 11.5958 8.01917 12.1875 6.5 12.1875C4.98083 12.1875 3.55286 11.5958 2.47853 10.5215C1.4042 9.44734 0.8125 8.01917 0.8125 6.5C0.8125 4.98083 1.4042 3.55266 2.47873 2.47853C3.55286 1.4042 4.98083 0.8125 6.5 0.8125C8.01917 0.8125 9.44714 1.4042 10.5215 2.47853C11.5958 3.55266 12.1875 4.98083 12.1875 6.5C12.1875 8.01917 11.5958 9.44734 10.5213 10.5215Z" fill="#292929"/>
</svg>
