<svg width="38" height="38" viewBox="0 0 38 38" fill="none" xmlns="http://www.w3.org/2000/svg">
<path fill-rule="evenodd" clip-rule="evenodd" d="M19 35.15C27.9194 35.15 35.15 27.9194 35.15 19C35.15 10.0806 27.9194 2.85 19 2.85C10.0806 2.85 2.85 10.0806 2.85 19C2.85 27.9194 10.0806 35.15 19 35.15ZM19 38C29.4933 38 38 29.4933 38 19C38 8.50659 29.4933 0 19 0C8.50659 0 0 8.50659 0 19C0 29.4933 8.50659 38 19 38Z" fill="#292929"/>
<path d="M20.9 30.4C20.9 31.4494 20.0493 32.3 19 32.3C17.9506 32.3 17.1 31.4494 17.1 30.4C17.1 29.3506 17.9506 28.5 19 28.5C20.0493 28.5 20.9 29.3506 20.9 30.4Z" fill="#292929"/>
<path fill-rule="evenodd" clip-rule="evenodd" d="M19 10.925C17.1408 10.925 15.5555 12.1126 14.9679 13.7749C14.7056 14.5169 13.8915 14.9058 13.1495 14.6436C12.4075 14.3813 12.0185 13.5672 12.2808 12.8251C13.2582 10.0597 15.8956 8.07501 19 8.07501C22.9351 8.07501 26.125 11.265 26.125 15.2C26.125 18.647 23.6772 21.5223 20.425 22.1825V24.7C20.425 25.487 19.7869 26.125 19 26.125C18.213 26.125 17.575 25.487 17.575 24.7V20.9C17.575 20.113 18.213 19.475 19 19.475C21.3611 19.475 23.275 17.561 23.275 15.2C23.275 12.839 21.3611 10.925 19 10.925Z" fill="#292929"/>
</svg>
