<svg width="40" height="40" viewBox="0 0 40 40" fill="none" xmlns="http://www.w3.org/2000/svg">
<path d="M19.9999 0C25.5219 0 30.5225 2.23895 34.1418 5.85824C37.7611 9.47731 40 14.4781 40 19.9999C40 25.5226 37.7613 30.5225 34.1418 34.1418C30.5225 37.7611 25.5219 40 19.9999 40C14.4774 40 9.47731 37.7613 5.85824 34.1418C2.2385 30.5225 0 25.5226 0 19.9999C0 14.4781 2.23895 9.47731 5.85824 5.85824C9.47731 2.2385 14.4774 0 19.9999 0ZM31.782 8.21796C28.767 5.20316 24.6013 3.33819 19.9999 3.33819C15.3983 3.33819 11.2325 5.20316 8.21796 8.21796C5.20316 11.2328 3.33819 15.3987 3.33819 19.9999C3.33819 24.6017 5.20316 28.7675 8.21796 31.782C11.2325 34.7968 15.3983 36.6616 19.9999 36.6616C24.6013 36.6616 28.767 34.7968 31.782 31.782C34.7968 28.7675 36.6616 24.6017 36.6616 19.9999C36.6616 15.3987 34.7968 11.2328 31.782 8.21796Z" fill="#292929"/>
<line x1="26.8492" y1="27.9706" x2="12" y2="13.1213" stroke="#292929" stroke-width="3" stroke-linecap="round"/>
<path d="M13 27.8492L27.8492 13" stroke="#292929" stroke-width="3" stroke-linecap="round"/>
</svg>
