<svg width="10" height="12" viewBox="0 0 10 12" fill="none" xmlns="http://www.w3.org/2000/svg">
<path d="M5 6.6C4.80972 6.59787 4.62332 6.65174 4.4659 6.75438C4.30848 6.85702 4.18759 7.00349 4.11951 7.17408C4.05142 7.34467 4.03941 7.53119 4.08509 7.70854C4.13077 7.88588 4.23195 8.04553 4.375 8.166V9C4.375 9.15913 4.44085 9.31174 4.55806 9.42426C4.67527 9.53679 4.83424 9.6 5 9.6C5.16576 9.6 5.32473 9.53679 5.44194 9.42426C5.55915 9.31174 5.625 9.15913 5.625 9V8.166C5.76805 8.04553 5.86923 7.88588 5.91491 7.70854C5.96059 7.53119 5.94858 7.34467 5.88049 7.17408C5.81241 7.00349 5.69152 6.85702 5.5341 6.75438C5.37668 6.65174 5.19028 6.59787 5 6.6ZM8.125 4.2V3C8.125 2.20435 7.79576 1.44129 7.20971 0.87868C6.62366 0.316071 5.8288 0 5 0C4.1712 0 3.37634 0.316071 2.79029 0.87868C2.20424 1.44129 1.875 2.20435 1.875 3V4.2C1.37772 4.2 0.900806 4.38964 0.549175 4.72721C0.197544 5.06477 0 5.52261 0 6V10.2C0 10.6774 0.197544 11.1352 0.549175 11.4728C0.900806 11.8104 1.37772 12 1.875 12H8.125C8.62228 12 9.09919 11.8104 9.45083 11.4728C9.80246 11.1352 10 10.6774 10 10.2V6C10 5.52261 9.80246 5.06477 9.45083 4.72721C9.09919 4.38964 8.62228 4.2 8.125 4.2ZM3.125 3C3.125 2.52261 3.32254 2.06477 3.67417 1.72721C4.02581 1.38964 4.50272 1.2 5 1.2C5.49728 1.2 5.97419 1.38964 6.32583 1.72721C6.67746 2.06477 6.875 2.52261 6.875 3V4.2H3.125V3ZM8.75 10.2C8.75 10.3591 8.68415 10.5117 8.56694 10.6243C8.44973 10.7368 8.29076 10.8 8.125 10.8H1.875C1.70924 10.8 1.55027 10.7368 1.43306 10.6243C1.31585 10.5117 1.25 10.3591 1.25 10.2V6C1.25 5.84087 1.31585 5.68826 1.43306 5.57574C1.55027 5.46321 1.70924 5.4 1.875 5.4H8.125C8.29076 5.4 8.44973 5.46321 8.56694 5.57574C8.68415 5.68826 8.75 5.84087 8.75 6V10.2Z" fill="#292929"/>
</svg>
