<svg width="15" height="15" viewBox="0 0 15 15" fill="none" xmlns="http://www.w3.org/2000/svg">
<path d="M7.50001 15C6.01665 15 4.5666 14.5601 3.33323 13.736C2.09986 12.9119 1.13856 11.7406 0.570907 10.3701C0.00324965 8.99969 -0.145275 7.49169 0.144114 6.03683C0.433503 4.58197 1.14781 3.2456 2.1967 2.1967C3.2456 1.14781 4.58197 0.433503 6.03683 0.144114C7.49169 -0.145275 8.99969 0.00324965 10.3701 0.570907C11.7406 1.13856 12.9119 2.09986 13.736 3.33323C14.5601 4.5666 15 6.01665 15 7.50001C15 9.48913 14.2098 11.3968 12.8033 12.8033C11.3968 14.2098 9.48913 15 7.50001 15ZM7.50001 1.25C6.26387 1.25 5.0555 1.61656 4.02769 2.30332C2.99988 2.99008 2.1988 3.9662 1.72576 5.10823C1.25271 6.25027 1.12894 7.50694 1.3701 8.71932C1.61125 9.9317 2.20651 11.0453 3.08059 11.9194C3.95467 12.7935 5.06831 13.3888 6.28069 13.6299C7.49307 13.8711 8.74974 13.7473 9.89178 13.2743C11.0338 12.8012 12.0099 12.0001 12.6967 10.9723C13.3835 9.94451 13.75 8.73614 13.75 7.50001C13.75 5.8424 13.0915 4.25269 11.9194 3.08059C10.7473 1.90848 9.15761 1.25 7.50001 1.25V1.25Z" fill="#424242"/>
<path d="M10.625 10.9375C10.4701 10.9371 10.3209 10.8792 10.2063 10.775L7.08125 7.9625C7.0165 7.90407 6.96471 7.83273 6.92918 7.75308C6.89366 7.67342 6.87521 7.58722 6.875 7.5V4.375C6.875 4.20924 6.94085 4.05027 7.05806 3.93306C7.17527 3.81585 7.33424 3.75 7.5 3.75C7.66576 3.75 7.82473 3.81585 7.94194 3.93306C8.05915 4.05027 8.125 4.20924 8.125 4.375V7.21875L11.0438 9.84375C11.1393 9.92802 11.2068 10.0395 11.2373 10.1632C11.2677 10.2869 11.2596 10.417 11.2141 10.536C11.1685 10.655 11.0877 10.7572 10.9824 10.829C10.8771 10.9007 10.7524 10.9386 10.625 10.9375Z" fill="#424242"/>
</svg>
